<svg width="18" height="17" viewBox="0 0 18 17" fill="none" xmlns="http://www.w3.org/2000/svg">
<path d="M6.5 1H2.333C2.22361 1 2.11529 1.02155 2.01422 1.06341C1.91316 1.10527 1.82133 1.16663 1.74398 1.24398C1.66663 1.32133 1.60527 1.41316 1.56341 1.51422C1.52155 1.61529 1.5 1.72361 1.5 1.833V6C1.5 6.46 1.873 6.833 2.333 6.833H6.5C6.96 6.833 7.333 6.46 7.333 6V1.833C7.333 1.72361 7.31145 1.61529 7.26959 1.51422C7.22773 1.41316 7.16637 1.32133 7.08902 1.24398C7.01167 1.16663 6.91984 1.10527 6.81878 1.06341C6.71771 1.02155 6.60939 1 6.5 1ZM6.5 10.167H2.333C2.22361 10.167 2.11529 10.1885 2.01422 10.2304C1.91316 10.2723 1.82133 10.3336 1.74398 10.411C1.66663 10.4883 1.60527 10.5802 1.56341 10.6812C1.52155 10.7823 1.5 10.8906 1.5 11V15.167C1.5 15.627 1.873 16 2.333 16H6.5C6.96 16 7.333 15.627 7.333 15.167V11C7.333 10.7791 7.24524 10.5672 7.08902 10.411C6.9328 10.2548 6.72093 10.167 6.5 10.167ZM15.668 1H11.501C11.3916 1 11.2833 1.02155 11.1822 1.06341C11.0812 1.10527 10.9893 1.16663 10.912 1.24398C10.8346 1.32133 10.7733 1.41316 10.7314 1.51422C10.6895 1.61529 10.668 1.72361 10.668 1.833V6C10.668 6.46 11.041 6.833 11.501 6.833H15.668C16.128 6.833 16.501 6.46 16.501 6V1.833C16.501 1.72361 16.4795 1.61529 16.4376 1.51422C16.3957 1.41316 16.3344 1.32133 16.257 1.24398C16.1797 1.16663 16.0878 1.10527 15.9868 1.06341C15.8857 1.02155 15.7774 1 15.668 1ZM15.668 10.167H11.501C11.2801 10.167 11.0682 10.2548 10.912 10.411C10.7558 10.5672 10.668 10.7791 10.668 11V15.167C10.668 15.627 11.041 16 11.501 16H15.668C16.128 16 16.501 15.627 16.501 15.167V11C16.501 10.7791 16.4132 10.5672 16.257 10.411C16.1008 10.2548 15.8889 10.167 15.668 10.167Z" stroke="#656D76" stroke-width="1.5" stroke-linejoin="round"/>
</svg>
