<svg width="43" height="42" viewBox="0 0 43 42" fill="none" xmlns="http://www.w3.org/2000/svg">
<g clip-path="url(#clip0_101_55520)">
<rect x="0.400146" width="42" height="42" rx="21" fill="#EBEDFC"/>
<g clip-path="url(#clip1_101_55520)">
<g clip-path="url(#clip2_101_55520)">
<path d="M16.4531 24.5351C16.3602 24.6279 16.2865 24.7382 16.2362 24.8595C16.1859 24.9808 16.16 25.1109 16.1599 25.2422C16.1599 25.3736 16.1857 25.5036 16.2359 25.625C16.2861 25.7464 16.3598 25.8567 16.4526 25.9496C16.5455 26.0425 16.6557 26.1162 16.777 26.1665C16.8984 26.2168 17.0284 26.2427 17.1598 26.2428C17.2911 26.2428 17.4212 26.217 17.5425 26.1668C17.6639 26.1166 17.7742 26.0429 17.8671 25.9501L16.4531 24.5351ZM25.6451 16.7571H26.6451C26.6451 16.4919 26.5398 16.2375 26.3522 16.05C26.1647 15.8624 25.9103 15.7571 25.6451 15.7571V16.7571ZM19.2811 15.7571C19.0159 15.7571 18.7615 15.8624 18.574 16.05C18.3865 16.2375 18.2811 16.4919 18.2811 16.7571C18.2811 17.0223 18.3865 17.2767 18.574 17.4642C18.7615 17.6517 19.0159 17.7571 19.2811 17.7571V15.7571ZM24.6451 23.1211C24.6451 23.3863 24.7505 23.6407 24.938 23.8282C25.1255 24.0157 25.3799 24.1211 25.6451 24.1211C25.9103 24.1211 26.1647 24.0157 26.3522 23.8282C26.5398 23.6407 26.6451 23.3863 26.6451 23.1211H24.6451ZM17.8671 25.9501L26.3531 17.4641L24.9381 16.0501L16.4531 24.5351L17.8671 25.9501ZM25.6451 15.7571H19.2811V17.7571H25.6451V15.7571ZM24.6451 16.7571V23.1211H26.6451V16.7571H24.6451Z" fill="#0C0C0C"/>
</g>
</g>
<rect x="0.900146" y="0.5" width="41" height="41" rx="20.5" stroke="black" stroke-opacity="0.05"/>
</g>
<defs>
<clipPath id="clip0_101_55520">
<rect x="0.400146" width="42" height="42" rx="21" fill="white"/>
</clipPath>
<clipPath id="clip1_101_55520">
<rect width="18" height="18" fill="white" transform="translate(12.4001 12)"/>
</clipPath>
<clipPath id="clip2_101_55520">
<rect width="18" height="18" fill="white" transform="translate(12.4001 12)"/>
</clipPath>
</defs>
</svg>
