<svg width="11" height="12" viewBox="0 0 11 12" fill="none" xmlns="http://www.w3.org/2000/svg">
<path d="M0.453115 9.53508C0.360205 9.62792 0.286491 9.73816 0.236183 9.85949C0.185876 9.98082 0.159959 10.1109 0.159912 10.2422C0.159866 10.3736 0.185691 10.5036 0.235913 10.625C0.286135 10.7464 0.35977 10.8567 0.452615 10.9496C0.545459 11.0425 0.655695 11.1162 0.777027 11.1665C0.89836 11.2168 1.02841 11.2427 1.15976 11.2428C1.29111 11.2428 1.42118 11.217 1.54255 11.1668C1.66392 11.1166 1.7742 11.0429 1.86711 10.9501L0.453115 9.53508ZM9.64511 1.75708H10.6451C10.6451 1.49186 10.5398 1.23751 10.3522 1.04997C10.1647 0.862437 9.91033 0.75708 9.64511 0.75708V1.75708ZM3.28111 0.75708C3.0159 0.75708 2.76154 0.862437 2.57401 1.04997C2.38647 1.23751 2.28111 1.49186 2.28111 1.75708C2.28111 2.0223 2.38647 2.27665 2.57401 2.46419C2.76154 2.65172 3.0159 2.75708 3.28111 2.75708V0.75708ZM8.64511 8.12108C8.64511 8.3863 8.75047 8.64065 8.93801 8.82819C9.12554 9.01572 9.3799 9.12108 9.64511 9.12108C9.91033 9.12108 10.1647 9.01572 10.3522 8.82819C10.5398 8.64065 10.6451 8.3863 10.6451 8.12108H8.64511ZM1.86711 10.9501L10.3531 2.46408L8.93812 1.05008L0.453115 9.53508L1.86711 10.9501ZM9.64511 0.75708H3.28111V2.75708H9.64511V0.75708ZM8.64511 1.75708V8.12108H10.6451V1.75708H8.64511Z" fill="#0C0C0C"/>
</svg>
