<svg width="24" height="25" viewBox="0 0 24 25" fill="none" xmlns="http://www.w3.org/2000/svg">
<path d="M11.84 9.27443C11.2863 9.27443 10.7449 9.43865 10.2844 9.74632C9.82399 10.054 9.4651 10.4913 9.25318 11.0029C9.04125 11.5146 8.9858 12.0775 9.09384 12.6207C9.20188 13.1638 9.46855 13.6627 9.86014 14.0543C10.2517 14.4459 10.7506 14.7126 11.2938 14.8206C11.8369 14.9287 12.3999 14.8732 12.9116 14.6613C13.4232 14.4494 13.8605 14.0905 14.1682 13.63C14.4758 13.1696 14.64 12.6282 14.64 12.0744C14.6414 11.7064 14.5698 11.3417 14.4296 11.0014C14.2894 10.661 14.0832 10.3519 13.8229 10.0916C13.5626 9.83132 13.2534 9.62512 12.9131 9.48488C12.5728 9.34463 12.2081 9.27311 11.84 9.27443Z" fill="white"/>
<path fill-rule="evenodd" clip-rule="evenodd" d="M15.69 2.22461H8C6.4087 2.22461 4.88258 2.85675 3.75736 3.98197C2.63214 5.10719 2 6.63331 2 8.22461V15.9146C2 17.5059 2.63214 19.032 3.75736 20.1573C4.88258 21.2825 6.4087 21.9146 8 21.9146H15.69C17.2813 21.9146 18.8074 21.2825 19.9326 20.1573C21.0579 19.032 21.69 17.5059 21.69 15.9146V8.22461C21.69 6.63331 21.0579 5.10719 19.9326 3.98197C18.8074 2.85675 17.2813 2.22461 15.69 2.22461ZM11.84 16.3646C10.6996 16.362 9.6069 15.9064 8.80237 15.0981C7.99784 14.2898 7.54735 13.195 7.55 12.0546C7.55265 10.9142 8.00823 9.82151 8.81651 9.01698C9.62479 8.21245 10.7196 7.76196 11.86 7.76461C12.4247 7.76592 12.9836 7.87845 13.5048 8.09575C14.026 8.31306 14.4993 8.6309 14.8976 9.03112C15.296 9.43134 15.6116 9.90611 15.8265 10.4283C16.0414 10.9505 16.1513 11.5099 16.15 12.0746C16.1487 12.6393 16.0362 13.1982 15.8189 13.7194C15.6015 14.2406 15.2837 14.7139 14.8835 15.1122C14.4833 15.5106 14.0085 15.8262 13.4863 16.0411C12.9641 16.256 12.4047 16.3659 11.84 16.3646ZM15.575 7.13661C15.6588 7.33613 15.8 7.5062 15.9808 7.62516C16.1615 7.74412 16.3736 7.80659 16.59 7.80461C16.7318 7.80461 16.8723 7.77667 17.0033 7.7224C17.1343 7.66812 17.2534 7.58857 17.3537 7.48828C17.454 7.388 17.5335 7.26894 17.5878 7.13791C17.6421 7.00688 17.67 6.86644 17.67 6.72461C17.6715 6.56281 17.6369 6.40271 17.5688 6.25594C17.5007 6.10916 17.4008 5.97939 17.2763 5.87604C17.1518 5.77269 17.0058 5.69836 16.849 5.65843C16.6922 5.61851 16.5285 5.61399 16.3697 5.64521C16.2109 5.67643 16.0611 5.74261 15.9311 5.83894C15.8011 5.93527 15.6942 6.05934 15.6181 6.20214C15.542 6.34493 15.4987 6.50288 15.4912 6.66451C15.4837 6.82615 15.5124 6.98741 15.575 7.13661Z" fill="white"/>
</svg>
