<svg width="21" height="22" viewBox="0 0 21 22" fill="none" xmlns="http://www.w3.org/2000/svg">
<path d="M17.5 12V4.749C17.5001 4.67006 17.4845 4.59189 17.4543 4.51896C17.4241 4.44603 17.3798 4.37978 17.324 4.324L14.176 1.176C14.0636 1.06345 13.9111 1.00014 13.752 1H2.1C1.94087 1 1.78826 1.06321 1.67574 1.17574C1.56321 1.28826 1.5 1.44087 1.5 1.6V20.4C1.5 20.5591 1.56321 20.7117 1.67574 20.8243C1.78826 20.9368 1.94087 21 2.1 21H11.5" stroke="white" stroke-width="1.5" stroke-linecap="round" stroke-linejoin="round"/>
<path d="M13.5 1V4.4C13.5 4.55913 13.5632 4.71174 13.6757 4.82426C13.7883 4.93679 13.9409 5 14.1 5H17.5M13.5 18H19.5M19.5 18L16.5 15M19.5 18L16.5 21" stroke="white" stroke-width="1.5" stroke-linecap="round" stroke-linejoin="round"/>
</svg>
