<svg width="35" height="35" viewBox="0 0 35 35" fill="none" xmlns="http://www.w3.org/2000/svg">
<path d="M17.5901 29.9697C22.5489 24.8697 27.507 20.3027 27.507 14.6697C27.507 9.03678 23.0674 4.46973 17.5909 4.46973C12.1135 4.46973 7.67395 9.03678 7.67395 14.6697C7.67395 20.3027 12.6312 24.8697 17.5901 29.9697Z" stroke="#0C0C0C" stroke-width="1.7" stroke-linecap="round" stroke-linejoin="round"/>
<path d="M17.5901 17.2197C18.3416 17.2197 19.0623 16.9212 19.5936 16.3898C20.125 15.8584 20.4235 15.1377 20.4235 14.3862C20.4235 13.6347 20.125 12.914 19.5936 12.3826C19.0623 11.8513 18.3416 11.5527 17.5901 11.5527C16.8386 11.5527 16.1179 11.8513 15.5865 12.3826C15.0551 12.914 14.7566 13.6347 14.7566 14.3862C14.7566 15.1377 15.0551 15.8584 15.5865 16.3898C16.1179 16.9212 16.8386 17.2197 17.5901 17.2197Z" stroke="#0C0C0C" stroke-width="1.7" stroke-linecap="round" stroke-linejoin="round"/>
</svg>
