<svg width="50" height="51" viewBox="0 0 50 51" fill="none" xmlns="http://www.w3.org/2000/svg">
<path d="M18.7454 50.224C23.7536 50.224 28.4644 48.2737 32.0299 44.7057L49.2926 26.9629C49.6351 26.6105 49.8662 26.1649 49.957 25.6819C50.0478 25.1988 49.9941 24.6998 49.8029 24.247C49.6116 23.7943 49.2911 23.4079 48.8815 23.1363C48.4719 22.8647 47.9913 22.7198 47.4998 22.7198H39.246L49.6851 3.93189C49.9466 3.457 50.0467 2.91008 49.9706 2.37336C49.8945 1.83664 49.6462 1.33915 49.263 0.955696C48.8798 0.572241 48.3825 0.323553 47.8458 0.24703C47.3092 0.170507 46.7622 0.270286 46.2871 0.531363L28.5094 10.4079L29.9496 3.20927C30.0512 2.69986 29.9917 2.17145 29.7792 1.69744C29.5668 1.22343 29.2119 0.82735 28.7641 0.564232C28.3162 0.301114 27.7975 0.184017 27.28 0.229209C26.7625 0.274401 26.272 0.479637 25.8765 0.816407L5.48334 18.2116C-1.82778 25.5227 -1.82778 37.4195 5.48334 44.7307C7.22089 46.4777 9.28769 47.8628 11.5641 48.8057C13.8406 49.7487 16.2814 50.2307 18.7454 50.224ZM8.87386 21.8821L23.6311 9.30271L21.4858 20.0294L41.0638 9.15269L32.8125 24.005L32.81 24.0075L30.7497 27.7205H41.5789L28.4694 41.1951C25.8715 43.793 22.4184 45.2232 18.7454 45.2232C15.0723 45.2232 11.6168 43.793 9.01889 41.1951C3.66056 35.8343 3.66056 27.1079 8.87386 21.8821Z" fill="#6072E5"/>
<path d="M18.7457 40.2225C20.7369 40.2299 22.6709 39.5564 24.2268 38.3138C25.7827 37.0712 26.8672 35.334 27.3003 33.3905C27.7335 31.4469 27.4893 29.4137 26.6082 27.628C25.7272 25.8422 24.2622 24.4113 22.4563 23.5725C22.4688 23.705 22.4963 23.835 22.4963 23.97C22.4963 24.9647 22.1011 25.9187 21.3978 26.6221C20.6944 27.3255 19.7404 27.7206 18.7457 27.7206C17.751 27.7206 16.797 27.3255 16.0936 26.6221C15.3903 25.9187 14.9951 24.9647 14.9951 23.97C14.9951 23.835 15.0226 23.705 15.0351 23.5725C13.2292 24.4113 11.7642 25.8422 10.8832 27.628C10.0021 29.4137 9.75794 31.4469 10.1911 33.3905C10.6242 35.334 11.7087 37.0712 13.2646 38.3138C14.8205 39.5564 16.7545 40.2299 18.7457 40.2225Z" fill="#6072E5"/>
</svg>
