<svg width="25" height="26" viewBox="0 0 25 26" fill="none" xmlns="http://www.w3.org/2000/svg">
<path d="M9.37269 25.501C11.8768 25.501 14.2322 24.5259 16.015 22.7419L24.6463 13.8705C24.8176 13.6943 24.9331 13.4715 24.9785 13.23C25.0239 12.9885 24.9971 12.7389 24.9014 12.5125C24.8058 12.2862 24.6455 12.093 24.4407 11.9572C24.2359 11.8214 23.9956 11.7489 23.7499 11.7489H19.623L24.8426 2.35498C24.9733 2.11754 25.0234 1.84408 24.9853 1.57572C24.9472 1.30736 24.8231 1.05861 24.6315 0.866886C24.4399 0.675158 24.1913 0.550815 23.9229 0.512553C23.6546 0.474292 23.3811 0.524181 23.1436 0.65472L14.2547 5.59298L14.9748 1.99368C15.0256 1.73897 14.9958 1.47476 14.8896 1.23776C14.7834 1.00075 14.606 0.802713 14.382 0.671154C14.1581 0.539595 13.8987 0.481047 13.64 0.503643C13.3813 0.526239 13.136 0.628857 12.9382 0.797242L2.74167 9.49483C-0.91389 13.1504 -0.91389 19.0988 2.74167 22.7544C3.61045 23.6279 4.64385 24.3204 5.78206 24.7919C6.92028 25.2634 8.1407 25.5044 9.37269 25.501ZM4.43693 11.3301L11.8156 5.04039L10.7429 10.4037L20.5319 4.96538L16.4063 12.3915L16.405 12.3928L15.3749 14.2493H20.7894L14.2347 20.9866C12.9357 22.2855 11.2092 23.0007 9.37269 23.0007C7.53616 23.0007 5.80839 22.2855 4.50944 20.9866C1.83028 18.3062 1.83028 13.943 4.43693 11.3301Z" fill="#282828"/>
<path d="M9.37285 20.5003C10.3685 20.504 11.3354 20.1673 12.1134 19.5459C12.8914 18.9246 13.4336 18.0561 13.6502 17.0843C13.8667 16.1125 13.7446 15.0959 13.3041 14.203C12.8636 13.3102 12.1311 12.5947 11.2281 12.1753C11.2344 12.2415 11.2481 12.3065 11.2481 12.3741C11.2481 12.8714 11.0506 13.3484 10.6989 13.7001C10.3472 14.0518 9.87021 14.2493 9.37285 14.2493C8.87549 14.2493 8.39851 14.0518 8.04682 13.7001C7.69514 13.3484 7.49756 12.8714 7.49756 12.3741C7.49756 12.3065 7.51132 12.2415 7.51757 12.1753C6.6146 12.5947 5.88212 13.3102 5.4416 14.203C5.00107 15.0959 4.87897 16.1125 5.09554 17.0843C5.31211 18.0561 5.85433 18.9246 6.6323 19.5459C7.41027 20.1673 8.37724 20.504 9.37285 20.5003Z" fill="#282828"/>
</svg>
