<svg width="31" height="21" viewBox="0 0 31 21" fill="none" xmlns="http://www.w3.org/2000/svg">
<path d="M21.308 10.262L29.1509 3.39999V17.0476L21.308 10.262ZM11.2015 11.4248L13.9555 13.8329C14.4047 14.2172 14.9768 14.4277 15.5679 14.4262H15.6062C16.2233 14.4262 16.7868 14.2009 17.2237 13.8286L17.2203 13.8312L19.9744 11.4231L28.3468 18.6651H2.83325L11.2015 11.4248ZM2.82305 1.77224H28.3621L16.0941 12.5035C15.9565 12.6134 15.7857 12.6734 15.6096 12.6735H15.5756C15.3988 12.6738 15.2272 12.6135 15.0894 12.5026L15.0911 12.5035L2.82305 1.77224ZM2.0317 3.39829L9.87295 10.2612L2.0317 17.0416V3.39829ZM29.5717 0.263491C29.2469 0.102013 28.8889 0.0184858 28.5262 0.0195411H2.659C2.28937 0.0198867 1.92494 0.106628 1.5948 0.272841L1.60925 0.266041C1.21251 0.464235 0.878888 0.769119 0.645854 1.14645C0.41282 1.52378 0.289605 1.9586 0.290047 2.40209V18.0336C0.288464 18.6639 0.536999 19.2691 0.981119 19.7165C1.42524 20.1638 2.02867 20.4166 2.659 20.4195H28.5211C29.1514 20.4166 29.7549 20.1638 30.199 19.7165C30.6431 19.2691 30.8916 18.6639 30.89 18.0336V2.40209C30.89 1.46794 30.3554 0.659591 29.5776 0.270291L29.564 0.263491H29.5717Z" fill="#0C0C0C"/>
</svg>
