<svg width="21" height="16" viewBox="0 0 21 16" fill="none" xmlns="http://www.w3.org/2000/svg">
<path d="M19.5 0.5H1.5C1.10218 0.5 0.720644 0.658035 0.43934 0.93934C0.158035 1.22064 0 1.60218 0 2V14C0 14.3978 0.158035 14.7794 0.43934 15.0607C0.720644 15.342 1.10218 15.5 1.5 15.5H19.5C19.8978 15.5 20.2794 15.342 20.5607 15.0607C20.842 14.7794 21 14.3978 21 14V2C21 1.60218 20.842 1.22064 20.5607 0.93934C20.2794 0.658035 19.8978 0.5 19.5 0.5ZM17.85 2L10.5 7.085L3.15 2H17.85ZM1.5 14V2.6825L10.0725 8.615C10.198 8.7021 10.3472 8.74877 10.5 8.74877C10.6528 8.74877 10.802 8.7021 10.9275 8.615L19.5 2.6825V14H1.5Z" fill="white"/>
</svg>
