<svg width="19" height="17" viewBox="0 0 19 17" fill="none" xmlns="http://www.w3.org/2000/svg">
<path d="M0.5 12.3571H18.5V13.6428H0.5V12.3571ZM0.5 14.9285H18.5V16.2142H0.5V14.9285ZM14.6429 4.64279C14.3886 4.64279 14.14 4.71819 13.9286 4.85947C13.7171 5.00075 13.5523 5.20155 13.455 5.43648C13.3577 5.67141 13.3322 5.92993 13.3818 6.17933C13.4315 6.42874 13.5539 6.65783 13.7337 6.83764C13.9135 7.01745 14.1426 7.1399 14.392 7.18951C14.6414 7.23912 14.8999 7.21366 15.1349 7.11635C15.3698 7.01903 15.5706 6.85424 15.7119 6.64281C15.8532 6.43137 15.9286 6.18279 15.9286 5.9285C15.9286 5.58751 15.7931 5.26048 15.552 5.01936C15.3109 4.77825 14.9839 4.64279 14.6429 4.64279ZM9.5 8.49993C8.99142 8.49993 8.49426 8.34912 8.07139 8.06657C7.64852 7.78401 7.31894 7.38241 7.12431 6.91255C6.92968 6.44268 6.87876 5.92565 6.97798 5.42684C7.0772 4.92803 7.3221 4.46985 7.68173 4.11023C8.04135 3.75061 8.49953 3.5057 8.99834 3.40648C9.49715 3.30726 10.0142 3.35819 10.484 3.55281C10.9539 3.74744 11.3555 4.07702 11.6381 4.49989C11.9206 4.92276 12.0714 5.41992 12.0714 5.9285C12.0706 6.61023 11.7994 7.26378 11.3173 7.74584C10.8353 8.22789 10.1817 8.49908 9.5 8.49993ZM9.5 4.64279C9.24571 4.64279 8.99713 4.71819 8.7857 4.85947C8.57426 5.00075 8.40947 5.20155 8.31215 5.43648C8.21484 5.67141 8.18938 5.92993 8.23899 6.17933C8.2886 6.42874 8.41105 6.65783 8.59086 6.83764C8.77067 7.01745 8.99977 7.1399 9.24917 7.18951C9.49857 7.23912 9.75709 7.21366 9.99202 7.11635C10.227 7.01903 10.4278 6.85424 10.569 6.64281C10.7103 6.43137 10.7857 6.18279 10.7857 5.9285C10.7857 5.58751 10.6503 5.26048 10.4091 5.01936C10.168 4.77825 9.84099 4.64279 9.5 4.64279ZM4.35714 4.64279C4.10285 4.64279 3.85427 4.71819 3.64284 4.85947C3.4314 5.00075 3.26661 5.20155 3.1693 5.43648C3.07199 5.67141 3.04652 5.92993 3.09613 6.17933C3.14574 6.42874 3.2682 6.65783 3.44801 6.83764C3.62782 7.01745 3.85691 7.1399 4.10631 7.18951C4.35572 7.23912 4.61423 7.21366 4.84916 7.11635C5.0841 7.01903 5.2849 6.85424 5.42618 6.64281C5.56745 6.43137 5.64286 6.18279 5.64286 5.9285C5.64286 5.58751 5.5074 5.26048 5.26628 5.01936C5.02516 4.77825 4.69814 4.64279 4.35714 4.64279Z" fill="#0C0C0C"/>
<path d="M17.2143 11.0714H1.78571C1.44498 11.0705 1.11845 10.9348 0.877515 10.6938C0.63658 10.4529 0.500849 10.1264 0.5 9.78564V2.07136C0.500849 1.73063 0.63658 1.40409 0.877515 1.16316C1.11845 0.922224 1.44498 0.786493 1.78571 0.785645H17.2143C17.555 0.786493 17.8816 0.922224 18.1225 1.16316C18.3634 1.40409 18.4992 1.73063 18.5 2.07136V9.78564C18.4995 10.1265 18.3639 10.4532 18.1229 10.6942C17.8819 10.9352 17.5551 11.0708 17.2143 11.0714ZM17.2143 2.07136H1.78571V9.78564H17.2143V2.07136Z" fill="#0C0C0C"/>
</svg>
