<svg width="24" height="24" viewBox="0 0 24 24" fill="none" xmlns="http://www.w3.org/2000/svg">
<path d="M11.9999 20.4171C12.6642 21.0104 13.4523 21.4483 14.3069 21.6991C15.1616 21.9499 16.0613 22.0072 16.9409 21.867C17.8204 21.7268 18.6578 21.3926 19.3921 20.8885C20.1264 20.3844 20.7392 19.7232 21.1862 18.9528C21.6332 18.1824 21.903 17.3222 21.9761 16.4345C22.0493 15.5468 21.9239 14.654 21.609 13.8209C21.2942 12.9877 20.7978 12.2351 20.1559 11.6176C19.514 11.0002 18.7427 10.5334 17.8979 10.2511M13.5859 13.7501C14.0248 14.8679 14.1182 16.0917 13.8539 17.2631C13.5897 18.4345 12.9801 19.4997 12.1039 20.3209C11.2277 21.142 10.1252 21.6814 8.93915 21.8692C7.75307 22.0569 6.53793 21.8845 5.45093 21.3741C4.36393 20.8637 3.45508 20.0389 2.84196 19.0064C2.22884 17.9738 1.93966 16.7811 2.01182 15.5824C2.08399 14.3837 2.51417 13.2343 3.24674 12.2827C3.9793 11.3312 4.98053 10.6214 6.12091 10.2451" stroke="#0C0C0C" stroke-width="1.5" stroke-linecap="round" stroke-linejoin="round"/>
<path d="M12 13.9438C12.7879 13.9438 13.5681 13.7887 14.2961 13.4871C15.0241 13.1856 15.6855 12.7436 16.2426 12.1865C16.7998 11.6293 17.2417 10.9679 17.5433 10.2399C17.8448 9.51199 18 8.73178 18 7.94385C18 7.15592 17.8448 6.3757 17.5433 5.64775C17.2417 4.91979 16.7998 4.25836 16.2426 3.70121C15.6855 3.14406 15.0241 2.7021 14.2961 2.40057C13.5681 2.09904 12.7879 1.94385 12 1.94385C10.4087 1.94385 8.88258 2.57599 7.75736 3.70121C6.63214 4.82643 6 6.35255 6 7.94385C6 9.53515 6.63214 11.0613 7.75736 12.1865C8.88258 13.3117 10.4087 13.9438 12 13.9438Z" stroke="#0C0C0C" stroke-width="1.5" stroke-linecap="round" stroke-linejoin="round"/>
</svg>
