<svg width="20" height="19" viewBox="0 0 20 19" fill="none" xmlns="http://www.w3.org/2000/svg">
<path d="M9.99992 16.514C10.5536 17.0082 11.2103 17.373 11.9224 17.5819C12.6346 17.7908 13.3843 17.8385 14.1172 17.7216C14.8501 17.6047 15.5478 17.3261 16.1597 16.9061C16.7715 16.486 17.2822 15.935 17.6546 15.2931C18.027 14.6511 18.2519 13.9343 18.3128 13.1947C18.3738 12.455 18.2693 11.7111 18.007 11.0168C17.7447 10.3226 17.3311 9.6954 16.7963 9.18085C16.2615 8.6663 15.6188 8.27726 14.9149 8.04196M11.3229 10.958C11.6889 11.8894 11.7669 12.9093 11.5469 13.8856C11.3268 14.8619 10.8189 15.7497 10.0888 16.4341C9.35865 17.1186 8.43993 17.5682 7.45148 17.7247C6.46302 17.8813 5.45033 17.7377 4.54441 17.3124C3.6385 16.8871 2.88105 16.1997 2.37006 15.3392C1.85908 14.4788 1.61808 13.4847 1.67823 12.4858C1.73839 11.4868 2.09694 10.5289 2.7075 9.73591C3.31805 8.94295 4.15251 8.35146 5.10292 8.03796" stroke="#656D76" stroke-width="1.5" stroke-linecap="round" stroke-linejoin="round"/>
<path d="M9.99988 11.12C11.326 11.12 12.5977 10.5932 13.5354 9.65553C14.4731 8.71785 14.9999 7.44608 14.9999 6.12C14.9999 4.79391 14.4731 3.52214 13.5354 2.58446C12.5977 1.64678 11.326 1.12 9.99988 1.12C8.6738 1.12 7.40203 1.64678 6.46434 2.58446C5.52666 3.52214 4.99988 4.79391 4.99988 6.12C4.99988 7.44608 5.52666 8.71785 6.46434 9.65553C7.40203 10.5932 8.6738 11.12 9.99988 11.12Z" stroke="#656D76" stroke-width="1.5" stroke-linecap="round" stroke-linejoin="round"/>
</svg>
