<svg width="20" height="21" viewBox="0 0 20 21" fill="none" xmlns="http://www.w3.org/2000/svg">
<path d="M9.99892 15.916C10.8813 15.9268 11.7569 15.7624 12.5752 15.4322C13.3935 15.102 14.1381 14.6127 14.7659 13.9926C15.3937 13.3725 15.8921 12.6339 16.2322 11.8197C16.5724 11.0055 16.7476 10.1319 16.7476 9.24952C16.7476 8.36713 16.5724 7.49351 16.2322 6.67932C15.8921 5.86513 15.3937 5.12657 14.7659 4.50646C14.1381 3.88634 13.3935 3.39701 12.5752 3.06684C11.7569 2.73666 10.8813 2.57221 9.99892 2.58302C8.245 2.6045 6.5702 3.31632 5.33751 4.5642C4.10483 5.81207 3.41357 7.49546 3.41357 9.24952C3.41357 11.0036 4.10483 12.687 5.33751 13.9348C6.5702 15.1827 8.245 15.8945 9.99892 15.916Z" stroke="#656D76" stroke-width="1.5"/>
<path d="M9.99898 12.166C10.3865 12.1732 10.7716 12.1031 11.1317 11.9597C11.4919 11.8164 11.8198 11.6027 12.0964 11.3312C12.373 11.0596 12.5928 10.7357 12.7427 10.3783C12.8927 10.0209 12.97 9.63713 12.97 9.24952C12.97 8.86191 12.8927 8.47818 12.7427 8.12077C12.5928 7.76335 12.373 7.43942 12.0964 7.16788C11.8198 6.89635 11.4919 6.68267 11.1317 6.53932C10.7716 6.39598 10.3865 6.32584 9.99898 6.33302C9.23483 6.34717 8.50675 6.66066 7.97135 7.20607C7.43595 7.75148 7.13599 8.48524 7.13599 9.24952C7.13599 10.0138 7.43595 10.7476 7.97135 11.293C8.50675 11.8384 9.23483 12.1519 9.99898 12.166Z" stroke="#656D76" stroke-width="1.5"/>
<path d="M6.66797 18.417H13.335M9.99997 15.917V18.417" stroke="#656D76" stroke-width="1.5" stroke-linecap="round" stroke-linejoin="round"/>
</svg>
