<svg width="24" height="24" viewBox="0 0 24 24" fill="none" xmlns="http://www.w3.org/2000/svg">
<g clip-path="url(#clip0_105_149544)">
<g clip-path="url(#clip1_105_149544)">
<path d="M12 2V10.5" stroke="#0C0C0C" stroke-width="1.5" stroke-linecap="round" stroke-linejoin="round"/>
<path d="M12 2C6.477 2 2 6.477 2 12C2 17.523 6.477 22 12 22C17.523 22 22 17.523 22 12C22.0032 9.77715 21.2626 7.61714 19.896 5.864M12 6.5C10.757 6.50006 9.55064 6.92118 8.57763 7.6947C7.60462 8.46822 6.92233 9.54853 6.64198 10.7595C6.36163 11.9705 6.49975 13.2408 7.03384 14.3632C7.56792 15.4856 8.46647 16.394 9.58299 16.9403C10.6995 17.4866 11.9682 17.6386 13.1822 17.3715C14.3961 17.1044 15.4838 16.4339 16.2679 15.4694C17.052 14.5049 17.4863 13.3033 17.4999 12.0603C17.5136 10.8174 17.1058 9.60647 16.343 8.625" stroke="#0C0C0C" stroke-width="1.5" stroke-linecap="round"/>
<path d="M12 13.5C12.3978 13.5 12.7794 13.342 13.0607 13.0607C13.342 12.7794 13.5 12.3978 13.5 12C13.5 11.6022 13.342 11.2206 13.0607 10.9393C12.7794 10.658 12.3978 10.5 12 10.5C11.6022 10.5 11.2206 10.658 10.9393 10.9393C10.658 11.2206 10.5 11.6022 10.5 12C10.5 12.3978 10.658 12.7794 10.9393 13.0607C11.2206 13.342 11.6022 13.5 12 13.5Z" stroke="#0C0C0C" stroke-width="1.5"/>
</g>
</g>
<defs>
<clipPath id="clip0_105_149544">
<rect width="24" height="24" fill="white"/>
</clipPath>
<clipPath id="clip1_105_149544">
<rect width="24" height="24" fill="white"/>
</clipPath>
</defs>
</svg>
