<svg width="19" height="18" viewBox="0 0 19 18" fill="none" xmlns="http://www.w3.org/2000/svg">
<path d="M16.5099 9H18.5099C18.5099 6.61305 17.5617 4.32387 15.8739 2.63604C14.186 0.948211 11.8969 0 9.50991 0V2C13.3799 2 16.5099 5.13 16.5099 9ZM12.5099 9H14.5099C14.5099 6.24 12.2699 4 9.50991 4V6C11.1699 6 12.5099 7.34 12.5099 9ZM10.7199 14.37C7.8811 12.9262 5.57369 10.6188 4.12991 7.78L6.65991 5.25L6.04991 0H0.539912C-0.0400877 10.18 8.32991 18.55 18.5099 17.97V12.46L13.2399 11.85L10.7199 14.37Z" fill="white"/>
</svg>
