<svg width="20" height="19" viewBox="0 0 20 19" fill="none" xmlns="http://www.w3.org/2000/svg">
<path d="M10.001 17.834C12.2112 17.834 14.3308 16.956 15.8937 15.3932C17.4565 13.8303 18.3345 11.7107 18.3345 9.50049C18.3345 7.29031 17.4565 5.17065 15.8937 3.60782C14.3308 2.04498 12.2112 1.16699 10.001 1.16699M10.001 17.834C7.7908 17.834 5.67114 16.956 4.10831 15.3932C2.54547 13.8303 1.66748 11.7107 1.66748 9.50049M10.001 17.834L9.99998 14.917M10.001 1.16699C7.7908 1.16699 5.67114 2.04498 4.10831 3.60782C2.54547 5.17065 1.66748 7.29031 1.66748 9.50049M10.001 1.16699L9.99998 4.08399M1.66748 9.50049L4.58498 9.49999M15 9.49999H18.333" stroke="#656D76" stroke-width="1.5" stroke-linecap="round" stroke-linejoin="round"/>
</svg>
