<svg width="19" height="19" viewBox="0 0 19 19" fill="none" xmlns="http://www.w3.org/2000/svg">
<path d="M17.375 14V12.875H16.1932C16.1202 12.523 15.9804 12.1883 15.7814 11.8889L16.6196 11.0508L15.8242 10.2554L14.9861 11.0936C14.6867 10.8946 14.352 10.7548 14 10.6818V9.5H12.875V10.6818C12.523 10.7548 12.1883 10.8946 11.8889 11.0936L11.0508 10.2554L10.2554 11.0508L11.0936 11.8889C10.8946 12.1883 10.7548 12.523 10.6818 12.875H9.5V14H10.6818C10.7548 14.352 10.8946 14.6867 11.0936 14.9861L10.2554 15.8242L11.0508 16.6196L11.8889 15.7814C12.1883 15.9804 12.523 16.1202 12.875 16.1932V17.375H14V16.1932C14.352 16.1202 14.6867 15.9804 14.9861 15.7814L15.8242 16.6196L16.6196 15.8242L15.7814 14.9861C15.9804 14.6867 16.1202 14.352 16.1932 14H17.375ZM13.4375 15.125C13.1037 15.125 12.7775 15.026 12.5 14.8406C12.2225 14.6552 12.0062 14.3916 11.8785 14.0833C11.7507 13.7749 11.7173 13.4356 11.7824 13.1083C11.8475 12.7809 12.0083 12.4803 12.2443 12.2443C12.4803 12.0083 12.7809 11.8475 13.1083 11.7824C13.4356 11.7173 13.7749 11.7507 14.0833 11.8785C14.3916 12.0062 14.6552 12.2225 14.8406 12.5C15.026 12.7775 15.125 13.1037 15.125 13.4375C15.1246 13.8849 14.9466 14.3139 14.6302 14.6302C14.3139 14.9466 13.8849 15.1246 13.4375 15.125Z" fill="#0C0C0C"/>
<path d="M8.375 15.5002L6.55588 14.5299C5.74567 14.0986 5.06811 13.455 4.59584 12.668C4.12356 11.881 3.87438 10.9803 3.875 10.0625V2.75H15.125V8.375H16.25V2.75C16.25 2.45163 16.1315 2.16548 15.9205 1.9545C15.7095 1.74353 15.4234 1.625 15.125 1.625H3.875C3.57664 1.625 3.29049 1.74353 3.07951 1.9545C2.86853 2.16548 2.75 2.45163 2.75 2.75V10.0625C2.74869 11.1843 3.05295 12.2853 3.63011 13.2473C4.20728 14.2093 5.03555 14.9959 6.026 15.5227L8.375 16.7754V15.5002Z" fill="#0C0C0C"/>
</svg>
