<svg width="17" height="17" viewBox="0 0 17 17" fill="none" xmlns="http://www.w3.org/2000/svg">
<path d="M13.2815 8.57289L9.73691 7.26309L8.43124 3.71577C8.35392 3.50571 8.21402 3.32443 8.03043 3.19637C7.84685 3.06832 7.6284 2.99966 7.40456 2.99966C7.18073 2.99966 6.96228 3.06832 6.77869 3.19637C6.5951 3.32443 6.45521 3.50571 6.37789 3.71577L5.06396 7.26309L1.51664 8.56877C1.30659 8.64609 1.1253 8.78598 0.997249 8.96957C0.869195 9.15316 0.800537 9.3716 0.800537 9.59544C0.800537 9.81928 0.869195 10.0377 0.997249 10.2213C1.1253 10.4049 1.30659 10.5448 1.51664 10.6221L5.06396 11.936L6.36964 15.4834C6.44696 15.6934 6.58685 15.8747 6.77044 16.0028C6.95403 16.1308 7.17248 16.1995 7.39632 16.1995C7.62015 16.1995 7.8386 16.1308 8.02219 16.0028C8.20578 15.8747 8.34567 15.6934 8.42299 15.4834L9.73691 11.936L13.2842 10.6304C13.4943 10.553 13.6756 10.4131 13.8036 10.2296C13.9317 10.046 14.0003 9.82752 14.0003 9.60369C14.0003 9.37985 13.9317 9.1614 13.8036 8.97781C13.6756 8.79422 13.4943 8.65433 13.2842 8.57701L13.2815 8.57289ZM9.11843 10.9891C9.04381 11.0166 8.97604 11.0599 8.91981 11.1162C8.86357 11.1724 8.8202 11.2402 8.7927 11.3148L7.40044 15.0868L6.01092 11.3176C5.98346 11.2422 5.93983 11.1737 5.88308 11.1169C5.82633 11.0602 5.75785 11.0165 5.68244 10.9891L1.91316 9.59956L5.68244 8.21005C5.75785 8.18259 5.82633 8.13895 5.88308 8.08221C5.93983 8.02546 5.98346 7.95698 6.01092 7.88157L7.40044 4.11228L8.78995 7.88157C8.81746 7.95619 8.86082 8.02396 8.91706 8.08019C8.97329 8.13643 9.04106 8.1798 9.11569 8.2073L12.8877 9.59956L9.11843 10.9891ZM9.59947 2.4527C9.59947 2.30689 9.65739 2.16706 9.76049 2.06396C9.86359 1.96086 10.0034 1.90294 10.1492 1.90294H11.2487V0.803421C11.2487 0.657616 11.3067 0.517783 11.4098 0.414683C11.5129 0.311583 11.6527 0.253662 11.7985 0.253662C11.9443 0.253662 12.0841 0.311583 12.1872 0.414683C12.2903 0.517783 12.3483 0.657616 12.3483 0.803421V1.90294H13.4478C13.5936 1.90294 13.7334 1.96086 13.8365 2.06396C13.9396 2.16706 13.9975 2.30689 13.9975 2.4527C13.9975 2.5985 13.9396 2.73834 13.8365 2.84144C13.7334 2.94454 13.5936 3.00246 13.4478 3.00246H12.3483V4.10197C12.3483 4.24778 12.2903 4.38761 12.1872 4.49071C12.0841 4.59381 11.9443 4.65173 11.7985 4.65173C11.6527 4.65173 11.5129 4.59381 11.4098 4.49071C11.3067 4.38761 11.2487 4.24778 11.2487 4.10197V3.00246H10.1492C10.0034 3.00246 9.86359 2.94454 9.76049 2.84144C9.65739 2.73834 9.59947 2.5985 9.59947 2.4527ZM16.7463 5.75125C16.7463 5.89706 16.6884 6.03689 16.5853 6.13999C16.4822 6.24309 16.3424 6.30101 16.1966 6.30101H15.6468V6.85077C15.6468 6.99657 15.5889 7.13641 15.4858 7.23951C15.3827 7.34261 15.2429 7.40053 15.0971 7.40053C14.9513 7.40053 14.8114 7.34261 14.7083 7.23951C14.6052 7.13641 14.5473 6.99657 14.5473 6.85077V6.30101H13.9975C13.8517 6.30101 13.7119 6.24309 13.6088 6.13999C13.5057 6.03689 13.4478 5.89706 13.4478 5.75125C13.4478 5.60545 13.5057 5.46561 13.6088 5.36251C13.7119 5.25941 13.8517 5.20149 13.9975 5.20149H14.5473V4.65173C14.5473 4.50593 14.6052 4.3661 14.7083 4.263C14.8114 4.1599 14.9513 4.10197 15.0971 4.10197C15.2429 4.10197 15.3827 4.1599 15.4858 4.263C15.5889 4.3661 15.6468 4.50593 15.6468 4.65173V5.20149H16.1966C16.3424 5.20149 16.4822 5.25941 16.5853 5.36251C16.6884 5.46561 16.7463 5.60545 16.7463 5.75125Z" fill="#0C0C0C"/>
</svg>
